HIERARCHY
ROOT root
{
	OFFSET	0	13.1	24.9
	CHANNELS 6  Xposition Yposition Zposition Xrotation Yrotation Zrotation
	JOINT spine_1
	{
		OFFSET	0	9.99999	0
		CHANNELS 3  Xrotation Yrotation Zrotation
		JOINT spine_2
		{
			OFFSET	0	112	-10
			CHANNELS 3  Xrotation Yrotation Zrotation
			JOINT spine_3
			{
				OFFSET	0	206.5	19.3
				CHANNELS 3  Xrotation Yrotation Zrotation
				JOINT spine_4
				{
					OFFSET	0	110.4	14.6
					CHANNELS 3  Xrotation Yrotation Zrotation
					JOINT neck_1
					{
						OFFSET	0	71.8	-50.3
						CHANNELS 3  Xrotation Yrotation Zrotation
						JOINT neck_2
						{
							OFFSET	0	86.2	-25.8
							CHANNELS 3  Xrotation Yrotation Zrotation
							JOINT head_ee
							{
								OFFSET	0	179.8	-8.7
								CHANNELS 3  Xrotation Yrotation Zrotation
								End Site
								{
									OFFSET	1	0	0
								}
							}
						}
					}
					JOINT left_clavicle
					{
						OFFSET	-43.2	22.4	-70.8
						CHANNELS 3  Xrotation Yrotation Zrotation
						JOINT left_shoulder
						{
							OFFSET	-93.9	-5.79999	48.7
							CHANNELS 3  Xrotation Yrotation Zrotation
							JOINT left_elbow
							{
								OFFSET	-291.4	-30.8	15.2
								CHANNELS 3  Xrotation Yrotation Zrotation
								JOINT left_lowarm_twist
								{
									OFFSET	-110.7	-3.89999	13.6
									CHANNELS 3  Xrotation Yrotation Zrotation
									JOINT left_hand
									{
										OFFSET	-110.7	-3.89999	13.6
										CHANNELS 3  Xrotation Yrotation Zrotation
										JOINT left_ee
										{
											OFFSET	-80.8	-5.10001	12.1
											CHANNELS 3  Xrotation Yrotation Zrotation
											End Site
											{
												OFFSET	1	0	0
											}
										}
									}
								}
							}
						}
					}
					JOINT right_clavicle
					{
						OFFSET	43.2	22.4	-70.8
						CHANNELS 3  Xrotation Yrotation Zrotation
						JOINT right_shoulder
						{
							OFFSET	93.9	-5.79999	48.7
							CHANNELS 3  Xrotation Yrotation Zrotation
							JOINT right_elbow
							{
								OFFSET	291.4	-30.8	15.2
								CHANNELS 3  Xrotation Yrotation Zrotation
								JOINT right_lowarm_twist
								{
									OFFSET	110.7	-3.89999	13.6
									CHANNELS 3  Xrotation Yrotation Zrotation
									JOINT right_hand
									{
										OFFSET	110.7	-3.89999	13.6
										CHANNELS 3  Xrotation Yrotation Zrotation
										JOINT right_ee
										{
											OFFSET	80.8	-5.10001	12.1
											CHANNELS 3  Xrotation Yrotation Zrotation
											End Site
											{
												OFFSET	1	0	0
											}
										}
									}
								}
							}
						}
					}
				}
			}
		}
	}
	JOINT left_hip
	{
		OFFSET	-82.8	-127.5	0.300001
		CHANNELS 3  Xrotation Yrotation Zrotation
		JOINT left_knee
		{
			OFFSET	-28.2	-396.7	2.2
			CHANNELS 3  Xrotation Yrotation Zrotation
			JOINT left_ankle
			{
				OFFSET	-11.7	-411.3	35.4
				CHANNELS 3  Xrotation Yrotation Zrotation
				JOINT left_toes
				{
					OFFSET	0	-60	-88.6
					CHANNELS 3  Xrotation Yrotation Zrotation
					JOINT left_foot_ee
					{
						OFFSET	-22.5	-16.5	-42.2
						CHANNELS 3  Xrotation Yrotation Zrotation
						End Site
						{
							OFFSET	1	0	0
						}
					}
				}
			}
		}
	}
	JOINT right_hip
	{
		OFFSET	82.8	-127.5	0.300001
		CHANNELS 3  Xrotation Yrotation Zrotation
		JOINT right_knee
		{
			OFFSET	28.2	-396.7	2.2
			CHANNELS 3  Xrotation Yrotation Zrotation
			JOINT right_ankle
			{
				OFFSET	11.7	-411.3	35.4
				CHANNELS 3  Xrotation Yrotation Zrotation
				JOINT right_toes
				{
					OFFSET	0	-60	-88.6
					CHANNELS 3  Xrotation Yrotation Zrotation
					JOINT right_foot_ee
					{
						OFFSET	22.5	-16.5	-42.2
						CHANNELS 3  Xrotation Yrotation Zrotation
						End Site
						{
							OFFSET	1	0	0
						}
					}
				}
			}
		}
	}
}
MOTION
Frames: 12
Frame Time: 0.02
1009.65 738.323 -1599.42 7.52802 49.2509 11.8242 -0.282653 -0.0291665 -3.57182 -0.275578 0.19803 -3.56645 -0.284659 0.961572 -3.44023 -0.300942 0.406545 -3.54875 -18.3956 -0.51514 5.99686 -18.3182 -4.20781 5.39655 -0.0 0.0 -0.0 0.568039 22.3346 3.38664 14.3107 -21.6551 58.4952 2.20411 -47.5079 0.970109 -25.0304 -1.51733 2.79205 -2.18373 -2.32451 -15.8454 -0.0 0.0 -0.0 8.90212 15.6924 -17.2338 -37.0118 29.8709 -58.7519 0.424264 11.8692 -0.0441026 -59.0325 5.16268 -5.07004 -8.4618 -5.01318 71.317 0.0 0.0 0.0 11.4456 6.67182 -23.2769 -19.9073 0.29673 3.02518 39.1993 14.3802 -4.85129 -34.6014 0.0 0.0 -0.0 0.0 -0.0 30.8268 35.8262 -29.5534 -18.8123 -0.307881 -2.85753 35.856 -21.0268 4.64985 36.3992 -0.0 -0.0 0.0 0.0 0.0 
1009.53 725.982 -1591.41 5.58509 49.4591 12.5905 0.140216 -0.0554242 -3.66879 0.147685 0.177983 -3.66489 0.139029 0.936989 -3.54771 0.121654 0.365329 -3.65099 -13.9183 -1.04075 3.23271 -13.9003 -3.96455 2.7473 -0.0 0.0 -0.0 0.190785 22.2099 2.84503 14.1181 -23.06 59.1905 2.24832 -48.0739 1.00286 -23.5018 -1.39074 2.64256 -2.19884 -2.66633 -16.111 -0.0 0.0 -0.0 9.43376 19.2202 -18.1949 -36.4461 29.911 -59.2692 0.423485 11.848 -0.0439425 -56.0393 4.7947 -4.9609 -8.43863 -5.18884 70.5025 0.0 0.0 0.0 13.0118 8.05129 -23.5564 -17.4062 0.317498 2.64201 38.6804 17.0325 -4.84508 -35.6265 0.0 0.0 -0.0 0.0 -0.0 30.3211 36.0407 -26.3297 -17.0725 -0.319002 -2.59085 34.8201 -23.7179 4.60791 38.0608 -0.0 -0.0 0.0 0.0 0.0 
998.517 734.792 -1590.16 3.80176 49.5536 14.2633 0.0534308 -0.0347558 -3.48368 0.0601621 0.186854 -3.47884 0.051384 0.911992 -3.3625 0.0357986 0.369838 -3.46419 -11.1165 -1.60727 1.37565 -11.1174 -3.94351 0.902097 -0.0 0.0 -0.0 -0.0674969 22.1186 2.47207 13.9951 -24.0503 59.7006 2.27981 -48.4695 1.02636 -22.4315 -1.30451 2.53594 -2.20912 -2.90491 -16.2945 -0.0 0.0 -0.0 9.71161 21.64 -18.6308 -36.9941 29.6621 -59.5083 0.421335 11.7896 -0.0435021 -53.9466 4.54097 -4.87323 -8.41995 -5.29058 69.9369 0.0 0.0 0.0 14.2256 8.97116 -23.7902 -15.4775 0.32208 2.34616 38.3052 18.8906 -4.8451 -36.3441 0.0 0.0 -0.0 0.0 -0.0 30.0325 36.1481 -24.1402 -15.8236 -0.321991 -2.39925 34.1081 -25.8124 4.58956 39.2367 -0.0 -0.0 0.0 0.0 0.0 
982.656 740.548 -1585.29 -0.13502 49.8219 17.0034 -0.133912 -0.0851319 -3.02451 -0.128829 0.107409 -3.0238 -0.132243 0.748012 -2.93187 -0.144132 0.275811 -3.01312 -13.0719 -2.27381 5.94125 -13.0124 -8.04811 5.00183 -0.0 0.0 -0.0 0.126215 23.1545 2.85453 14.0436 -24.5011 60.1702 2.34377 -49.2545 1.07453 -22.4297 -1.30437 2.53576 -2.47919 -3.00669 -18.2444 -0.0 0.0 -0.0 9.84549 23.0522 -18.8084 -37.7368 29.4596 -59.1389 0.457756 12.7765 -0.0512506 -53.6704 4.50772 -4.86096 -8.31542 -5.16663 68.1015 0.0 0.0 0.0 14.2937 12.4526 -20.3185 -9.96883 0.280347 1.50229 38.5108 22.4329 -4.94816 -34.847 0.0 0.0 -0.0 0.0 -0.0 30.5631 36.7466 -22.7559 -14.7886 -0.321303 -2.24046 33.0986 -27.7116 4.53578 40.1667 -0.0 -0.0 0.0 0.0 0.0 
977.262 737.387 -1581.59 -0.781537 50.2686 15.6259 0.0196835 -0.0500055 -2.70018 0.0237314 0.121852 -2.69789 0.0196042 0.685788 -2.61218 0.0101799 0.264793 -2.68764 -14.1019 -2.86703 8.91845 -13.9657 -10.9082 7.58522 -0.0 0.0 -0.0 0.169359 25.6543 3.17203 12.6859 -24.6057 60.6329 2.44688 -50.4693 1.15336 -22.4928 -1.30939 2.54209 -2.59869 -4.17477 -19.6489 -0.0 0.0 -0.0 10.1656 24.1479 -19.4233 -37.7809 29.5508 -58.9222 0.492421 13.7087 -0.0591917 -53.9474 4.54107 -4.87326 -8.08814 -5.21403 64.1352 0.0 0.0 0.0 14.0562 14.3701 -17.7358 -6.15502 0.204044 0.922124 38.5228 25.5079 -5.03991 -33.7983 0.0 0.0 -0.0 0.0 -0.0 28.7582 37.8138 -20.3305 -14.2899 -0.319948 -2.16395 30.8863 -27.8446 4.28683 40.1843 -0.0 -0.0 0.0 0.0 0.0 
970.84 739.47 -1583.71 -1.70504 50.3519 14.9991 0.324834 -0.0951818 -2.36279 0.327938 0.0553189 -2.36406 0.326722 0.538135 -2.3027 0.319362 0.16782 -2.35875 -13.5687 -3.29625 9.84267 -13.3973 -12.3695 8.39446 -0.0 0.0 -0.0 0.255556 25.7122 3.29008 10.9968 -23.7767 60.8444 2.26999 -48.3468 1.01902 -22.2931 -1.2935 2.52203 -2.7543 -4.60432 -20.9707 -0.0 0.0 -0.0 10.2289 24.3933 -19.5414 -39.0378 29.4879 -59.1572 0.517228 14.3713 -0.0652101 -55.0226 4.67104 -4.91947 -7.86569 -5.13313 60.9165 0.0 0.0 0.0 13.0491 15.9599 -15.5083 -4.69214 0.164552 0.701102 38.4928 27.2151 -5.09498 -33.0547 0.0 0.0 -0.0 0.0 -0.0 27.4403 38.6907 -17.813 -13.7957 -0.317947 -2.08815 28.5462 -28.0139 4.01405 39.9839 -0.0 -0.0 0.0 0.0 0.0 
965.408 738.333 -1584.14 -2.7855 50.3195 14.8169 0.677428 -0.0936784 -2.14197 0.679979 0.0427786 -2.14359 0.679041 0.467807 -2.09238 0.672955 0.131563 -2.13998 -13.184 -3.61752 10.4074 -12.9883 -13.3896 8.88699 -0.0 0.0 -0.0 0.338592 25.2995 3.35804 9.60975 -23.328 61.0761 2.13986 -46.6631 0.923052 -22.1898 -1.28531 2.51164 -2.84288 -4.91815 -21.7614 -0.0 0.0 -0.0 10.4119 25.0215 -19.8896 -39.3439 29.7073 -59.0327 0.539137 14.9533 -0.0707556 -55.7735 4.76229 -4.95028 -7.69309 -5.08862 58.6182 0.0 0.0 0.0 12.2482 16.9335 -13.4228 -3.68036 0.133939 0.548844 38.3624 28.1978 -5.11773 -32.5693 0.0 0.0 -0.0 0.0 -0.0 26.3877 39.2488 -16.3538 -13.4119 -0.315943 -2.0293 26.9024 -28.1235 3.81607 39.8519 -0.0 -0.0 0.0 0.0 0.0 
957.959 740.01 -1582.79 -3.44197 50.2468 14.0175 0.917148 -0.0729509 -1.88186 0.919117 0.0469229 -1.88269 0.917962 0.412333 -1.83759 0.913268 0.116999 -1.87963 -12.8826 -3.84564 10.7606 -12.6693 -14.0911 9.1993 -0.0 0.0 -0.0 0.567299 24.4081 3.57748 7.94927 -23.2763 61.7845 1.96864 -44.2761 0.800972 -22.1175 -1.27959 2.50436 -2.76296 -5.18125 -21.3075 -0.0 0.0 -0.0 10.6054 25.8609 -20.2367 -39.528 30.1645 -58.8819 0.556508 15.4125 -0.0753053 -57.3225 4.95177 -5.01005 -7.53224 -4.62253 57.0646 0.0 0.0 0.0 11.5048 16.4755 -11.5467 -2.96385 0.110635 0.441351 36.4977 26.899 -4.87854 -32.859 0.0 0.0 -0.0 0.0 -0.0 25.4087 39.6988 -15.2261 -13.1729 -0.314495 -1.99265 24.2437 -27.8629 3.47526 39.613 -0.0 -0.0 0.0 0.0 0.0 
945.235 739.959 -1586.0 -4.74576 51.0989 14.4429 1.21073 -0.0533942 -1.71408 1.21236 0.0557689 -1.714 1.21088 0.379625 -1.67237 1.207 0.110781 -1.71133 -12.613 -4.52097 9.52056 -12.475 -14.6229 7.83465 -0.0 0.0 -0.0 0.395234 23.9617 3.30362 5.07919 -23.0323 62.0703 1.85749 -42.6143 0.724525 -22.2696 -1.29164 2.51967 -2.53699 -6.3435 -20.2225 -0.0 0.0 -0.0 10.688 26.6497 -20.3358 -39.4698 30.6006 -58.6661 0.571466 15.8063 -0.0793303 -59.1373 5.17566 -5.07351 -7.32227 -4.05749 55.0821 0.0 0.0 0.0 10.7174 16.182 -10.059 -2.47937 0.0941156 0.368832 35.7622 25.2498 -4.74964 -33.0812 0.0 0.0 -0.0 0.0 -0.0 24.2347 40.0692 -13.5401 -12.9647 -0.31311 -1.96074 21.8988 -27.7562 3.16912 39.4489 -0.0 -0.0 0.0 0.0 0.0 
932.544 739.299 -1591.43 -5.30887 52.3445 14.4485 1.42281 0.0157887 -1.45768 1.42399 0.108503 -1.45372 1.42128 0.376891 -1.40821 1.41854 0.149785 -1.45005 -12.418 -4.90607 8.08511 -12.3461 -14.4611 6.35782 -0.0 0.0 -0.0 0.293861 23.682 3.1384 3.27592 -22.8422 62.8187 1.8222 -42.0675 0.70076 -23.5447 -1.39423 2.64681 -2.27612 -8.36077 -19.2734 -0.0 0.0 -0.0 10.8616 27.3388 -20.6472 -37.9374 31.5484 -59.3934 0.483894 13.4801 -0.0571876 -60.7439 5.37541 -5.12374 -6.98004 -3.30684 51.8842 0.0 0.0 0.0 10.5376 15.8856 -9.31073 -1.75086 0.0681212 0.260051 35.8102 24.5246 -4.73368 -33.1097 0.0 0.0 -0.0 0.0 -0.0 22.1016 40.7072 -11.3199 -12.7859 -0.311827 -1.93333 18.4979 -27.9265 2.71723 38.5647 -0.0 -0.0 0.0 0.0 0.0 
929.849 737.754 -1593.55 -6.42075 54.0349 14.8206 1.59178 0.014835 -1.21884 1.5926 0.0923569 -1.21543 1.59064 0.313219 -1.178 1.58872 0.123259 -1.21268 -11.8163 -5.79847 6.09227 -11.819 -14.9207 4.25261 -0.0 0.0 -0.0 0.121413 23.5301 2.88758 1.67825 -22.6744 63.4124 1.81319 -41.9263 0.694731 -25.4175 -1.55001 2.82936 -1.50522 -11.3406 -15.1404 -0.0 0.0 -0.0 10.8276 27.0291 -20.6067 -37.8045 34.0161 -59.1948 0.419245 11.7327 -0.043076 -63.7065 5.74698 -5.20154 -6.5019 -2.43901 47.6099 0.0 0.0 0.0 9.37243 15.8379 -8.20778 -0.603999 0.0243989 0.0894789 36.4703 24.1225 -4.7906 -33.4886 0.0 0.0 -0.0 0.0 -0.0 20.206 41.1293 -9.51766 -11.0001 -0.294331 -1.65991 15.9965 -27.9447 2.37228 36.7329 -0.0 -0.0 0.0 0.0 0.0 
922.185 730.61 -1596.49 -6.34277 54.9639 14.0493 1.67131 0.0221748 -1.00355 1.67186 0.0859852 -1.00011 1.67035 0.266194 -0.967861 1.66906 0.110005 -0.997751 -11.4162 -6.44269 4.69461 -11.4579 -15.2511 2.77232 -0.0 0.0 -0.0 -0.0545176 23.5045 2.64445 0.195225 -22.6607 64.0378 1.80671 -41.8243 0.690403 -26.765 -1.66576 2.95754 -0.941778 -13.4063 -12.1202 -0.0 0.0 -0.0 10.8665 26.7493 -20.7262 -37.6425 35.8002 -59.1248 0.379572 10.6491 -0.035376 -65.8316 6.01561 -5.24541 -6.14954 -1.89354 44.5994 0.0 0.0 0.0 8.67131 15.7674 -7.47245 0.206603 -0.0085627 -0.0305486 36.9049 23.8428 -4.82711 -33.7834 0.0 0.0 -0.0 0.0 -0.0 18.6632 41.4305 -8.24678 -9.84449 -0.278469 -1.4833 14.085 -27.9637 2.10326 35.4054 -0.0 -0.0 0.0 0.0 0.0 
